<?xml version="1.0" standalone="no"?>
<!DOCTYPE svg PUBLIC "-//W3C//DTD SVG 20010904//EN"
 "http://www.w3.org/TR/2001/REC-SVG-20010904/DTD/svg10.dtd">
<svg version="1.0" xmlns="http://www.w3.org/2000/svg"
 width="180.000000pt" height="180.000000pt" viewBox="0 0 180.000000 180.000000"
 preserveAspectRatio="xMidYMid meet">

<g transform="translate(0.000000,180.000000) scale(0.100000,-0.100000)"
fill="#000000" stroke="none">
<path d="M827 1549 c-42 -32 -49 -77 -46 -271 2 -97 6 -179 10 -182 3 -3 51 5
108 17 l102 22 -3 193 -3 194 -28 24 c-37 31 -103 33 -140 3z"/>
<path d="M1140 1310 l0 -100 31 0 c47 0 89 47 89 100 0 53 -42 100 -89 100
l-31 0 0 -100z"/>
<path d="M1160 1053 c-7 -38 -15 -73 -17 -80 -3 -6 10 -14 29 -18 52 -12 87
-33 109 -68 l20 -32 -7 30 c-13 55 -45 128 -80 181 -20 30 -37 54 -38 54 -1 0
-8 -30 -16 -67z"/>
<path d="M992 1050 c0 -19 2 -27 5 -17 2 9 2 25 0 35 -3 9 -5 1 -5 -18z"/>
<path d="M1005 960 c10 -51 79 -189 117 -233 46 -54 62 -44 83 49 20 91 17 96
-74 124 -71 22 -87 32 -115 70 l-18 25 7 -35z"/>
<path d="M1073 613 c-35 -34 -42 -72 -22 -116 10 -23 47 -52 55 -44 3 2 3 47
2 98 l-3 94 -32 -32z"/>
<path d="M1403 552 l-103 -24 0 -84 c0 -106 15 -139 69 -155 29 -9 47 -9 75 1
56 18 67 50 64 178 l-3 107 -102 -23z"/>
<path d="M705 304 c-6 -1 -23 -5 -40 -9 -28 -6 -28 -7 -10 -18 27 -15 267 -22
291 -8 16 9 15 10 -14 11 -18 0 -52 4 -75 9 -44 10 -135 19 -152 15z"/>
</g>
</svg>
